<svg class="rich-terminal" viewBox="0 0 1629 830.8" xmlns="http://www.w3.org/2000/svg">
    <!-- Generated with Rich https://www.textualize.io -->
    <style>

    @font-face {
        font-family: "Fira Code";
        src: local("FiraCode-Regular"),
                url("https://cdnjs.cloudflare.com/ajax/libs/firacode/6.2.0/woff2/FiraCode-Regular.woff2") format("woff2"),
                url("https://cdnjs.cloudflare.com/ajax/libs/firacode/6.2.0/woff/FiraCode-Regular.woff") format("woff");
        font-style: normal;
        font-weight: 400;
    }
    @font-face {
        font-family: "Fira Code";
        src: local("FiraCode-Bold"),
                url("https://cdnjs.cloudflare.com/ajax/libs/firacode/6.2.0/woff2/FiraCode-Bold.woff2") format("woff2"),
                url("https://cdnjs.cloudflare.com/ajax/libs/firacode/6.2.0/woff/FiraCode-Bold.woff") format("woff");
        font-style: bold;
        font-weight: 700;
    }

    .terminal-986414136-matrix {
        font-family: Fira Code, monospace;
        font-size: 20px;
        line-height: 24.4px;
        font-variant-east-asian: full-width;
    }

    .terminal-986414136-title {
        font-size: 18px;
        font-weight: bold;
        font-family: arial;
    }

    .terminal-986414136-r1 { fill: #c5c8c6 }
.terminal-986414136-r2 { fill: #ffb547 }
.terminal-986414136-r3 { fill: #ffb547;font-weight: bold }
.terminal-986414136-r4 { fill: #6e7681 }
.terminal-986414136-r5 { fill: #e6edf3 }
.terminal-986414136-r6 { fill: #8b949e }
.terminal-986414136-r7 { fill: #0d1117;font-weight: bold }
.terminal-986414136-r8 { fill: #e6edf3;font-weight: bold }
.terminal-986414136-r9 { fill: #6e7681;font-weight: bold }
.terminal-986414136-r10 { fill: #30363d }
    </style>

    <defs>
    <clipPath id="terminal-986414136-clip-terminal">
      <rect x="0" y="0" width="1609.3999999999999" height="779.8" />
    </clipPath>
    <clipPath id="terminal-986414136-line-0">
    <rect x="0" y="1.5" width="1610.4" height="24.65"/>
            </clipPath>
<clipPath id="terminal-986414136-line-1">
    <rect x="0" y="25.9" width="1610.4" height="24.65"/>
            </clipPath>
<clipPath id="terminal-986414136-line-2">
    <rect x="0" y="50.3" width="1610.4" height="24.65"/>
            </clipPath>
<clipPath id="terminal-986414136-line-3">
    <rect x="0" y="74.7" width="1610.4" height="24.65"/>
            </clipPath>
<clipPath id="terminal-986414136-line-4">
    <rect x="0" y="99.1" width="1610.4" height="24.65"/>
            </clipPath>
<clipPath id="terminal-986414136-line-5">
    <rect x="0" y="123.5" width="1610.4" height="24.65"/>
            </clipPath>
<clipPath id="terminal-986414136-line-6">
    <rect x="0" y="147.9" width="1610.4" height="24.65"/>
            </clipPath>
<clipPath id="terminal-986414136-line-7">
    <rect x="0" y="172.3" width="1610.4" height="24.65"/>
            </clipPath>
<clipPath id="terminal-986414136-line-8">
    <rect x="0" y="196.7" width="1610.4" height="24.65"/>
            </clipPath>
<clipPath id="terminal-986414136-line-9">
    <rect x="0" y="221.1" width="1610.4" height="24.65"/>
            </clipPath>
<clipPath id="terminal-986414136-line-10">
    <rect x="0" y="245.5" width="1610.4" height="24.65"/>
            </clipPath>
<clipPath id="terminal-986414136-line-11">
    <rect x="0" y="269.9" width="1610.4" height="24.65"/>
            </clipPath>
<clipPath id="terminal-986414136-line-12">
    <rect x="0" y="294.3" width="1610.4" height="24.65"/>
            </clipPath>
<clipPath id="terminal-986414136-line-13">
    <rect x="0" y="318.7" width="1610.4" height="24.65"/>
            </clipPath>
<clipPath id="terminal-986414136-line-14">
    <rect x="0" y="343.1" width="1610.4" height="24.65"/>
            </clipPath>
<clipPath id="terminal-986414136-line-15">
    <rect x="0" y="367.5" width="1610.4" height="24.65"/>
            </clipPath>
<clipPath id="terminal-986414136-line-16">
    <rect x="0" y="391.9" width="1610.4" height="24.65"/>
            </clipPath>
<clipPath id="terminal-986414136-line-17">
    <rect x="0" y="416.3" width="1610.4" height="24.65"/>
            </clipPath>
<clipPath id="terminal-986414136-line-18">
    <rect x="0" y="440.7" width="1610.4" height="24.65"/>
            </clipPath>
<clipPath id="terminal-986414136-line-19">
    <rect x="0" y="465.1" width="1610.4" height="24.65"/>
            </clipPath>
<clipPath id="terminal-986414136-line-20">
    <rect x="0" y="489.5" width="1610.4" height="24.65"/>
            </clipPath>
<clipPath id="terminal-986414136-line-21">
    <rect x="0" y="513.9" width="1610.4" height="24.65"/>
            </clipPath>
<clipPath id="terminal-986414136-line-22">
    <rect x="0" y="538.3" width="1610.4" height="24.65"/>
            </clipPath>
<clipPath id="terminal-986414136-line-23">
    <rect x="0" y="562.7" width="1610.4" height="24.65"/>
            </clipPath>
<clipPath id="terminal-986414136-line-24">
    <rect x="0" y="587.1" width="1610.4" height="24.65"/>
            </clipPath>
<clipPath id="terminal-986414136-line-25">
    <rect x="0" y="611.5" width="1610.4" height="24.65"/>
            </clipPath>
<clipPath id="terminal-986414136-line-26">
    <rect x="0" y="635.9" width="1610.4" height="24.65"/>
            </clipPath>
<clipPath id="terminal-986414136-line-27">
    <rect x="0" y="660.3" width="1610.4" height="24.65"/>
            </clipPath>
<clipPath id="terminal-986414136-line-28">
    <rect x="0" y="684.7" width="1610.4" height="24.65"/>
            </clipPath>
<clipPath id="terminal-986414136-line-29">
    <rect x="0" y="709.1" width="1610.4" height="24.65"/>
            </clipPath>
<clipPath id="terminal-986414136-line-30">
    <rect x="0" y="733.5" width="1610.4" height="24.65"/>
            </clipPath>
    </defs>

    <rect fill="#292929" stroke="rgba(255,255,255,0.35)" stroke-width="1" x="1" y="1" width="1627" height="828.8" rx="8"/><text class="terminal-986414136-title" fill="#c5c8c6" text-anchor="middle" x="813" y="27">DT-Cleaner</text>
            <g transform="translate(26,22)">
            <circle cx="0" cy="0" r="7" fill="#ff5f57"/>
            <circle cx="22" cy="0" r="7" fill="#febc2e"/>
            <circle cx="44" cy="0" r="7" fill="#28c840"/>
            </g>
        
    <g transform="translate(9, 41)" clip-path="url(#terminal-986414136-clip-terminal)">
    <rect fill="#161b22" x="0" y="1.5" width="12.2" height="24.65" shape-rendering="crispEdges"/><rect fill="#161b22" x="12.2" y="1.5" width="85.4" height="24.65" shape-rendering="crispEdges"/><rect fill="#161b22" x="97.6" y="1.5" width="146.4" height="24.65" shape-rendering="crispEdges"/><rect fill="#161b22" x="244" y="1.5" width="61" height="24.65" shape-rendering="crispEdges"/><rect fill="#161b22" x="305" y="1.5" width="48.8" height="24.65" shape-rendering="crispEdges"/><rect fill="#161b22" x="353.8" y="1.5" width="1244.4" height="24.65" shape-rendering="crispEdges"/><rect fill="#161b22" x="1598.2" y="1.5" width="12.2" height="24.65" shape-rendering="crispEdges"/><rect fill="#0d1117" x="0" y="25.9" width="12.2" height="24.65" shape-rendering="crispEdges"/><rect fill="#0d1117" x="12.2" y="25.9" width="12.2" height="24.65" shape-rendering="crispEdges"/><rect fill="#0d1117" x="24.4" y="25.9" width="231.8" height="24.65" shape-rendering="crispEdges"/><rect fill="#0d1117" x="256.2" y="25.9" width="1329.8" height="24.65" shape-rendering="crispEdges"/><rect fill="#0d1117" x="1586" y="25.9" width="12.2" height="24.65" shape-rendering="crispEdges"/><rect fill="#0d1117" x="1598.2" y="25.9" width="12.2" height="24.65" shape-rendering="crispEdges"/><rect fill="#0d1117" x="0" y="50.3" width="12.2" height="24.65" shape-rendering="crispEdges"/><rect fill="#1f2937" x="12.2" y="50.3" width="12.2" height="24.65" shape-rendering="crispEdges"/><rect fill="#1f2937" x="24.4" y="50.3" width="24.4" height="24.65" shape-rendering="crispEdges"/><rect fill="#ffb547" x="48.8" y="50.3" width="36.6" height="24.65" shape-rendering="crispEdges"/><rect fill="#1f2937" x="85.4" y="50.3" width="24.4" height="24.65" shape-rendering="crispEdges"/><rect fill="#1f2937" x="109.8" y="50.3" width="122" height="24.65" shape-rendering="crispEdges"/><rect fill="#1f2937" x="231.8" y="50.3" width="170.8" height="24.65" shape-rendering="crispEdges"/><rect fill="#1f2937" x="402.6" y="50.3" width="573.4" height="24.65" shape-rendering="crispEdges"/><rect fill="#1f2937" x="976" y="50.3" width="61" height="24.65" shape-rendering="crispEdges"/><rect fill="#1f2937" x="1037" y="50.3" width="12.2" height="24.65" shape-rendering="crispEdges"/><rect fill="#0d1117" x="1049.2" y="50.3" width="12.2" height="24.65" shape-rendering="crispEdges"/><rect fill="#1c2128" x="1061.4" y="50.3" width="12.2" height="24.65" shape-rendering="crispEdges"/><rect fill="#1c2128" x="1073.6" y="50.3" width="512.4" height="24.65" shape-rendering="crispEdges"/><rect fill="#1c2128" x="1586" y="50.3" width="12.2" height="24.65" shape-rendering="crispEdges"/><rect fill="#0d1117" x="1598.2" y="50.3" width="12.2" height="24.65" shape-rendering="crispEdges"/><rect fill="#0d1117" x="0" y="74.7" width="12.2" height="24.65" shape-rendering="crispEdges"/><rect fill="#0d1117" x="12.2" y="74.7" width="12.2" height="24.65" shape-rendering="crispEdges"/><rect fill="#0d1117" x="24.4" y="74.7" width="24.4" height="24.65" shape-rendering="crispEdges"/><rect fill="#ffb547" x="48.8" y="74.7" width="36.6" height="24.65" shape-rendering="crispEdges"/><rect fill="#0d1117" x="85.4" y="74.7" width="24.4" height="24.65" shape-rendering="crispEdges"/><rect fill="#0d1117" x="109.8" y="74.7" width="109.8" height="24.65" shape-rendering="crispEdges"/><rect fill="#0d1117" x="219.6" y="74.7" width="183" height="24.65" shape-rendering="crispEdges"/><rect fill="#0d1117" x="402.6" y="74.7" width="524.6" height="24.65" shape-rendering="crispEdges"/><rect fill="#0d1117" x="927.2" y="74.7" width="109.8" height="24.65" shape-rendering="crispEdges"/><rect fill="#0d1117" x="1037" y="74.7" width="12.2" height="24.65" shape-rendering="crispEdges"/><rect fill="#0d1117" x="1049.2" y="74.7" width="12.2" height="24.65" shape-rendering="crispEdges"/><rect fill="#1c2128" x="1061.4" y="74.7" width="12.2" height="24.65" shape-rendering="crispEdges"/><rect fill="#1c2128" x="1073.6" y="74.7" width="12.2" height="24.65" shape-rendering="crispEdges"/><rect fill="#1c2128" x="1085.8" y="74.7" width="170.8" height="24.65" shape-rendering="crispEdges"/><rect fill="#1c2128" x="1256.6" y="74.7" width="317.2" height="24.65" shape-rendering="crispEdges"/><rect fill="#1c2128" x="1573.8" y="74.7" width="12.2" height="24.65" shape-rendering="crispEdges"/><rect fill="#1c2128" x="1586" y="74.7" width="12.2" height="24.65" shape-rendering="crispEdges"/><rect fill="#0d1117" x="1598.2" y="74.7" width="12.2" height="24.65" shape-rendering="crispEdges"/><rect fill="#0d1117" x="0" y="99.1" width="12.2" height="24.65" shape-rendering="crispEdges"/><rect fill="#0d1117" x="12.2" y="99.1" width="12.2" height="24.65" shape-rendering="crispEdges"/><rect fill="#0d1117" x="24.4" y="99.1" width="24.4" height="24.65" shape-rendering="crispEdges"/><rect fill="#ffb547" x="48.8" y="99.1" width="36.6" height="24.65" shape-rendering="crispEdges"/><rect fill="#0d1117" x="85.4" y="99.1" width="24.4" height="24.65" shape-rendering="crispEdges"/><rect fill="#0d1117" x="109.8" y="99.1" width="134.2" height="24.65" shape-rendering="crispEdges"/><rect fill="#0d1117" x="244" y="99.1" width="158.6" height="24.65" shape-rendering="crispEdges"/><rect fill="#0d1117" x="402.6" y="99.1" width="378.2" height="24.65" shape-rendering="crispEdges"/><rect fill="#0d1117" x="780.8" y="99.1" width="256.2" height="24.65" shape-rendering="crispEdges"/><rect fill="#0d1117" x="1037" y="99.1" width="12.2" height="24.65" shape-rendering="crispEdges"/><rect fill="#0d1117" x="1049.2" y="99.1" width="12.2" height="24.65" shape-rendering="crispEdges"/><rect fill="#1c2128" x="1061.4" y="99.1" width="12.2" height="24.65" shape-rendering="crispEdges"/><rect fill="#1c2128" x="1073.6" y="99.1" width="12.2" height="24.65" shape-rendering="crispEdges"/><rect fill="#1c2128" x="1085.8" y="99.1" width="353.8" height="24.65" shape-rendering="crispEdges"/><rect fill="#1c2128" x="1439.6" y="99.1" width="12.2" height="24.65" shape-rendering="crispEdges"/><rect fill="#1c2128" x="1451.8" y="99.1" width="122" height="24.65" shape-rendering="crispEdges"/><rect fill="#1c2128" x="1573.8" y="99.1" width="12.2" height="24.65" shape-rendering="crispEdges"/><rect fill="#1c2128" x="1586" y="99.1" width="12.2" height="24.65" shape-rendering="crispEdges"/><rect fill="#0d1117" x="1598.2" y="99.1" width="12.2" height="24.65" shape-rendering="crispEdges"/><rect fill="#0d1117" x="0" y="123.5" width="12.2" height="24.65" shape-rendering="crispEdges"/><rect fill="#0d1117" x="12.2" y="123.5" width="12.2" height="24.65" shape-rendering="crispEdges"/><rect fill="#0d1117" x="24.4" y="123.5" width="24.4" height="24.65" shape-rendering="crispEdges"/><rect fill="#ffb547" x="48.8" y="123.5" width="36.6" height="24.65" shape-rendering="crispEdges"/><rect fill="#0d1117" x="85.4" y="123.5" width="24.4" height="24.65" shape-rendering="crispEdges"/><rect fill="#0d1117" x="109.8" y="123.5" width="183" height="24.65" shape-rendering="crispEdges"/><rect fill="#0d1117" x="292.8" y="123.5" width="109.8" height="24.65" shape-rendering="crispEdges"/><rect fill="#0d1117" x="402.6" y="123.5" width="524.6" height="24.65" shape-rendering="crispEdges"/><rect fill="#0d1117" x="927.2" y="123.5" width="109.8" height="24.65" shape-rendering="crispEdges"/><rect fill="#0d1117" x="1037" y="123.5" width="12.2" height="24.65" shape-rendering="crispEdges"/><rect fill="#0d1117" x="1049.2" y="123.5" width="12.2" height="24.65" shape-rendering="crispEdges"/><rect fill="#1c2128" x="1061.4" y="123.5" width="12.2" height="24.65" shape-rendering="crispEdges"/><rect fill="#1c2128" x="1073.6" y="123.5" width="12.2" height="24.65" shape-rendering="crispEdges"/><rect fill="#1c2128" x="1085.8" y="123.5" width="353.8" height="24.65" shape-rendering="crispEdges"/><rect fill="#1c2128" x="1439.6" y="123.5" width="12.2" height="24.65" shape-rendering="crispEdges"/><rect fill="#1c2128" x="1451.8" y="123.5" width="122" height="24.65" shape-rendering="crispEdges"/><rect fill="#1c2128" x="1573.8" y="123.5" width="12.2" height="24.65" shape-rendering="crispEdges"/><rect fill="#1c2128" x="1586" y="123.5" width="12.2" height="24.65" shape-rendering="crispEdges"/><rect fill="#0d1117" x="1598.2" y="123.5" width="12.2" height="24.65" shape-rendering="crispEdges"/><rect fill="#0d1117" x="0" y="147.9" width="12.2" height="24.65" shape-rendering="crispEdges"/><rect fill="#0d1117" x="12.2" y="147.9" width="12.2" height="24.65" shape-rendering="crispEdges"/><rect fill="#0d1117" x="24.4" y="147.9" width="24.4" height="24.65" shape-rendering="crispEdges"/><rect fill="#ffb547" x="48.8" y="147.9" width="36.6" height="24.65" shape-rendering="crispEdges"/><rect fill="#0d1117" x="85.4" y="147.9" width="24.4" height="24.65" shape-rendering="crispEdges"/><rect fill="#0d1117" x="109.8" y="147.9" width="97.6" height="24.65" shape-rendering="crispEdges"/><rect fill="#0d1117" x="207.4" y="147.9" width="195.2" height="24.65" shape-rendering="crispEdges"/><rect fill="#0d1117" x="402.6" y="147.9" width="549" height="24.65" shape-rendering="crispEdges"/><rect fill="#0d1117" x="951.6" y="147.9" width="85.4" height="24.65" shape-rendering="crispEdges"/><rect fill="#0d1117" x="1037" y="147.9" width="12.2" height="24.65" shape-rendering="crispEdges"/><rect fill="#0d1117" x="1049.2" y="147.9" width="12.2" height="24.65" shape-rendering="crispEdges"/><rect fill="#1c2128" x="1061.4" y="147.9" width="12.2" height="24.65" shape-rendering="crispEdges"/><rect fill="#1c2128" x="1073.6" y="147.9" width="512.4" height="24.65" shape-rendering="crispEdges"/><rect fill="#1c2128" x="1586" y="147.9" width="12.2" height="24.65" shape-rendering="crispEdges"/><rect fill="#0d1117" x="1598.2" y="147.9" width="12.2" height="24.65" shape-rendering="crispEdges"/><rect fill="#0d1117" x="0" y="172.3" width="12.2" height="24.65" shape-rendering="crispEdges"/><rect fill="#0d1117" x="12.2" y="172.3" width="12.2" height="24.65" shape-rendering="crispEdges"/><rect fill="#0d1117" x="24.4" y="172.3" width="24.4" height="24.65" shape-rendering="crispEdges"/><rect fill="#ffb547" x="48.8" y="172.3" width="36.6" height="24.65" shape-rendering="crispEdges"/><rect fill="#0d1117" x="85.4" y="172.3" width="24.4" height="24.65" shape-rendering="crispEdges"/><rect fill="#0d1117" x="109.8" y="172.3" width="170.8" height="24.65" shape-rendering="crispEdges"/><rect fill="#0d1117" x="280.6" y="172.3" width="122" height="24.65" shape-rendering="crispEdges"/><rect fill="#0d1117" x="402.6" y="172.3" width="427" height="24.65" shape-rendering="crispEdges"/><rect fill="#0d1117" x="829.6" y="172.3" width="207.4" height="24.65" shape-rendering="crispEdges"/><rect fill="#0d1117" x="1037" y="172.3" width="12.2" height="24.65" shape-rendering="crispEdges"/><rect fill="#0d1117" x="1049.2" y="172.3" width="12.2" height="24.65" shape-rendering="crispEdges"/><rect fill="#0d1117" x="1061.4" y="172.3" width="536.8" height="24.65" shape-rendering="crispEdges"/><rect fill="#0d1117" x="1598.2" y="172.3" width="12.2" height="24.65" shape-rendering="crispEdges"/><rect fill="#0d1117" x="0" y="196.7" width="12.2" height="24.65" shape-rendering="crispEdges"/><rect fill="#0d1117" x="12.2" y="196.7" width="12.2" height="24.65" shape-rendering="crispEdges"/><rect fill="#0d1117" x="24.4" y="196.7" width="24.4" height="24.65" shape-rendering="crispEdges"/><rect fill="#ffb547" x="48.8" y="196.7" width="36.6" height="24.65" shape-rendering="crispEdges"/><rect fill="#0d1117" x="85.4" y="196.7" width="24.4" height="24.65" shape-rendering="crispEdges"/><rect fill="#0d1117" x="109.8" y="196.7" width="48.8" height="24.65" shape-rendering="crispEdges"/><rect fill="#0d1117" x="158.6" y="196.7" width="244" height="24.65" shape-rendering="crispEdges"/><rect fill="#0d1117" x="402.6" y="196.7" width="561.2" height="24.65" shape-rendering="crispEdges"/><rect fill="#0d1117" x="963.8" y="196.7" width="73.2" height="24.65" shape-rendering="crispEdges"/><rect fill="#0d1117" x="1037" y="196.7" width="12.2" height="24.65" shape-rendering="crispEdges"/><rect fill="#0d1117" x="1049.2" y="196.7" width="12.2" height="24.65" shape-rendering="crispEdges"/><rect fill="#0d1117" x="1061.4" y="196.7" width="536.8" height="24.65" shape-rendering="crispEdges"/><rect fill="#0d1117" x="1598.2" y="196.7" width="12.2" height="24.65" shape-rendering="crispEdges"/><rect fill="#0d1117" x="0" y="221.1" width="12.2" height="24.65" shape-rendering="crispEdges"/><rect fill="#0d1117" x="12.2" y="221.1" width="1037" height="24.65" shape-rendering="crispEdges"/><rect fill="#0d1117" x="1049.2" y="221.1" width="12.2" height="24.65" shape-rendering="crispEdges"/><rect fill="#0d1117" x="1061.4" y="221.1" width="536.8" height="24.65" shape-rendering="crispEdges"/><rect fill="#0d1117" x="1598.2" y="221.1" width="12.2" height="24.65" shape-rendering="crispEdges"/><rect fill="#0d1117" x="0" y="245.5" width="12.2" height="24.65" shape-rendering="crispEdges"/><rect fill="#0d1117" x="12.2" y="245.5" width="1037" height="24.65" shape-rendering="crispEdges"/><rect fill="#0d1117" x="1049.2" y="245.5" width="12.2" height="24.65" shape-rendering="crispEdges"/><rect fill="#0d1117" x="1061.4" y="245.5" width="536.8" height="24.65" shape-rendering="crispEdges"/><rect fill="#0d1117" x="1598.2" y="245.5" width="12.2" height="24.65" shape-rendering="crispEdges"/><rect fill="#0d1117" x="0" y="269.9" width="12.2" height="24.65" shape-rendering="crispEdges"/><rect fill="#0d1117" x="12.2" y="269.9" width="1037" height="24.65" shape-rendering="crispEdges"/><rect fill="#0d1117" x="1049.2" y="269.9" width="12.2" height="24.65" shape-rendering="crispEdges"/><rect fill="#0d1117" x="1061.4" y="269.9" width="536.8" height="24.65" shape-rendering="crispEdges"/><rect fill="#0d1117" x="1598.2" y="269.9" width="12.2" height="24.65" shape-rendering="crispEdges"/><rect fill="#0d1117" x="0" y="294.3" width="12.2" height="24.65" shape-rendering="crispEdges"/><rect fill="#0d1117" x="12.2" y="294.3" width="1037" height="24.65" shape-rendering="crispEdges"/><rect fill="#0d1117" x="1049.2" y="294.3" width="12.2" height="24.65" shape-rendering="crispEdges"/><rect fill="#0d1117" x="1061.4" y="294.3" width="536.8" height="24.65" shape-rendering="crispEdges"/><rect fill="#0d1117" x="1598.2" y="294.3" width="12.2" height="24.65" shape-rendering="crispEdges"/><rect fill="#0d1117" x="0" y="318.7" width="12.2" height="24.65" shape-rendering="crispEdges"/><rect fill="#0d1117" x="12.2" y="318.7" width="1037" height="24.65" shape-rendering="crispEdges"/><rect fill="#0d1117" x="1049.2" y="318.7" width="12.2" height="24.65" shape-rendering="crispEdges"/><rect fill="#0d1117" x="1061.4" y="318.7" width="536.8" height="24.65" shape-rendering="crispEdges"/><rect fill="#0d1117" x="1598.2" y="318.7" width="12.2" height="24.65" shape-rendering="crispEdges"/><rect fill="#0d1117" x="0" y="343.1" width="12.2" height="24.65" shape-rendering="crispEdges"/><rect fill="#0d1117" x="12.2" y="343.1" width="1037" height="24.65" shape-rendering="crispEdges"/><rect fill="#0d1117" x="1049.2" y="343.1" width="12.2" height="24.65" shape-rendering="crispEdges"/><rect fill="#0d1117" x="1061.4" y="343.1" width="536.8" height="24.65" shape-rendering="crispEdges"/><rect fill="#0d1117" x="1598.2" y="343.1" width="12.2" height="24.65" shape-rendering="crispEdges"/><rect fill="#0d1117" x="0" y="367.5" width="12.2" height="24.65" shape-rendering="crispEdges"/><rect fill="#0d1117" x="12.2" y="367.5" width="1037" height="24.65" shape-rendering="crispEdges"/><rect fill="#0d1117" x="1049.2" y="367.5" width="12.2" height="24.65" shape-rendering="crispEdges"/><rect fill="#0d1117" x="1061.4" y="367.5" width="536.8" height="24.65" shape-rendering="crispEdges"/><rect fill="#0d1117" x="1598.2" y="367.5" width="12.2" height="24.65" shape-rendering="crispEdges"/><rect fill="#0d1117" x="0" y="391.9" width="12.2" height="24.65" shape-rendering="crispEdges"/><rect fill="#0d1117" x="12.2" y="391.9" width="1037" height="24.65" shape-rendering="crispEdges"/><rect fill="#0d1117" x="1049.2" y="391.9" width="12.2" height="24.65" shape-rendering="crispEdges"/><rect fill="#0d1117" x="1061.4" y="391.9" width="536.8" height="24.65" shape-rendering="crispEdges"/><rect fill="#0d1117" x="1598.2" y="391.9" width="12.2" height="24.65" shape-rendering="crispEdges"/><rect fill="#0d1117" x="0" y="416.3" width="12.2" height="24.65" shape-rendering="crispEdges"/><rect fill="#0d1117" x="12.2" y="416.3" width="1037" height="24.65" shape-rendering="crispEdges"/><rect fill="#0d1117" x="1049.2" y="416.3" width="12.2" height="24.65" shape-rendering="crispEdges"/><rect fill="#0d1117" x="1061.4" y="416.3" width="536.8" height="24.65" shape-rendering="crispEdges"/><rect fill="#0d1117" x="1598.2" y="416.3" width="12.2" height="24.65" shape-rendering="crispEdges"/><rect fill="#0d1117" x="0" y="440.7" width="12.2" height="24.65" shape-rendering="crispEdges"/><rect fill="#0d1117" x="12.2" y="440.7" width="1037" height="24.65" shape-rendering="crispEdges"/><rect fill="#0d1117" x="1049.2" y="440.7" width="12.2" height="24.65" shape-rendering="crispEdges"/><rect fill="#0d1117" x="1061.4" y="440.7" width="536.8" height="24.65" shape-rendering="crispEdges"/><rect fill="#0d1117" x="1598.2" y="440.7" width="12.2" height="24.65" shape-rendering="crispEdges"/><rect fill="#0d1117" x="0" y="465.1" width="12.2" height="24.65" shape-rendering="crispEdges"/><rect fill="#0d1117" x="12.2" y="465.1" width="1037" height="24.65" shape-rendering="crispEdges"/><rect fill="#0d1117" x="1049.2" y="465.1" width="12.2" height="24.65" shape-rendering="crispEdges"/><rect fill="#0d1117" x="1061.4" y="465.1" width="536.8" height="24.65" shape-rendering="crispEdges"/><rect fill="#0d1117" x="1598.2" y="465.1" width="12.2" height="24.65" shape-rendering="crispEdges"/><rect fill="#0d1117" x="0" y="489.5" width="12.2" height="24.65" shape-rendering="crispEdges"/><rect fill="#0d1117" x="12.2" y="489.5" width="1037" height="24.65" shape-rendering="crispEdges"/><rect fill="#0d1117" x="1049.2" y="489.5" width="12.2" height="24.65" shape-rendering="crispEdges"/><rect fill="#0d1117" x="1061.4" y="489.5" width="536.8" height="24.65" shape-rendering="crispEdges"/><rect fill="#0d1117" x="1598.2" y="489.5" width="12.2" height="24.65" shape-rendering="crispEdges"/><rect fill="#0d1117" x="0" y="513.9" width="12.2" height="24.65" shape-rendering="crispEdges"/><rect fill="#0d1117" x="12.2" y="513.9" width="1037" height="24.65" shape-rendering="crispEdges"/><rect fill="#0d1117" x="1049.2" y="513.9" width="12.2" height="24.65" shape-rendering="crispEdges"/><rect fill="#0d1117" x="1061.4" y="513.9" width="536.8" height="24.65" shape-rendering="crispEdges"/><rect fill="#0d1117" x="1598.2" y="513.9" width="12.2" height="24.65" shape-rendering="crispEdges"/><rect fill="#0d1117" x="0" y="538.3" width="12.2" height="24.65" shape-rendering="crispEdges"/><rect fill="#0d1117" x="12.2" y="538.3" width="1037" height="24.65" shape-rendering="crispEdges"/><rect fill="#0d1117" x="1049.2" y="538.3" width="12.2" height="24.65" shape-rendering="crispEdges"/><rect fill="#0d1117" x="1061.4" y="538.3" width="536.8" height="24.65" shape-rendering="crispEdges"/><rect fill="#0d1117" x="1598.2" y="538.3" width="12.2" height="24.65" shape-rendering="crispEdges"/><rect fill="#0d1117" x="0" y="562.7" width="12.2" height="24.65" shape-rendering="crispEdges"/><rect fill="#0d1117" x="12.2" y="562.7" width="1037" height="24.65" shape-rendering="crispEdges"/><rect fill="#0d1117" x="1049.2" y="562.7" width="12.2" height="24.65" shape-rendering="crispEdges"/><rect fill="#0d1117" x="1061.4" y="562.7" width="536.8" height="24.65" shape-rendering="crispEdges"/><rect fill="#0d1117" x="1598.2" y="562.7" width="12.2" height="24.65" shape-rendering="crispEdges"/><rect fill="#0d1117" x="0" y="587.1" width="12.2" height="24.65" shape-rendering="crispEdges"/><rect fill="#0d1117" x="12.2" y="587.1" width="1037" height="24.65" shape-rendering="crispEdges"/><rect fill="#0d1117" x="1049.2" y="587.1" width="12.2" height="24.65" shape-rendering="crispEdges"/><rect fill="#0d1117" x="1061.4" y="587.1" width="536.8" height="24.65" shape-rendering="crispEdges"/><rect fill="#0d1117" x="1598.2" y="587.1" width="12.2" height="24.65" shape-rendering="crispEdges"/><rect fill="#0d1117" x="0" y="611.5" width="12.2" height="24.65" shape-rendering="crispEdges"/><rect fill="#0d1117" x="12.2" y="611.5" width="1037" height="24.65" shape-rendering="crispEdges"/><rect fill="#0d1117" x="1049.2" y="611.5" width="12.2" height="24.65" shape-rendering="crispEdges"/><rect fill="#0d1117" x="1061.4" y="611.5" width="536.8" height="24.65" shape-rendering="crispEdges"/><rect fill="#0d1117" x="1598.2" y="611.5" width="12.2" height="24.65" shape-rendering="crispEdges"/><rect fill="#0d1117" x="0" y="635.9" width="12.2" height="24.65" shape-rendering="crispEdges"/><rect fill="#0d1117" x="12.2" y="635.9" width="1037" height="24.65" shape-rendering="crispEdges"/><rect fill="#0d1117" x="1049.2" y="635.9" width="12.2" height="24.65" shape-rendering="crispEdges"/><rect fill="#0d1117" x="1061.4" y="635.9" width="536.8" height="24.65" shape-rendering="crispEdges"/><rect fill="#0d1117" x="1598.2" y="635.9" width="12.2" height="24.65" shape-rendering="crispEdges"/><rect fill="#0d1117" x="0" y="660.3" width="12.2" height="24.65" shape-rendering="crispEdges"/><rect fill="#0d1117" x="12.2" y="660.3" width="1037" height="24.65" shape-rendering="crispEdges"/><rect fill="#0d1117" x="1049.2" y="660.3" width="12.2" height="24.65" shape-rendering="crispEdges"/><rect fill="#0d1117" x="1061.4" y="660.3" width="536.8" height="24.65" shape-rendering="crispEdges"/><rect fill="#0d1117" x="1598.2" y="660.3" width="12.2" height="24.65" shape-rendering="crispEdges"/><rect fill="#0d1117" x="0" y="684.7" width="12.2" height="24.65" shape-rendering="crispEdges"/><rect fill="#0d1117" x="12.2" y="684.7" width="1037" height="24.65" shape-rendering="crispEdges"/><rect fill="#0d1117" x="1049.2" y="684.7" width="12.2" height="24.65" shape-rendering="crispEdges"/><rect fill="#0d1117" x="1061.4" y="684.7" width="536.8" height="24.65" shape-rendering="crispEdges"/><rect fill="#0d1117" x="1598.2" y="684.7" width="12.2" height="24.65" shape-rendering="crispEdges"/><rect fill="#0d1117" x="0" y="709.1" width="12.2" height="24.65" shape-rendering="crispEdges"/><rect fill="#0d1117" x="12.2" y="709.1" width="1037" height="24.65" shape-rendering="crispEdges"/><rect fill="#0d1117" x="1049.2" y="709.1" width="12.2" height="24.65" shape-rendering="crispEdges"/><rect fill="#0d1117" x="1061.4" y="709.1" width="536.8" height="24.65" shape-rendering="crispEdges"/><rect fill="#0d1117" x="1598.2" y="709.1" width="12.2" height="24.65" shape-rendering="crispEdges"/><rect fill="#0d1117" x="0" y="733.5" width="12.2" height="24.65" shape-rendering="crispEdges"/><rect fill="#0d1117" x="12.2" y="733.5" width="1037" height="24.65" shape-rendering="crispEdges"/><rect fill="#0d1117" x="1049.2" y="733.5" width="12.2" height="24.65" shape-rendering="crispEdges"/><rect fill="#0d1117" x="1061.4" y="733.5" width="536.8" height="24.65" shape-rendering="crispEdges"/><rect fill="#0d1117" x="1598.2" y="733.5" width="12.2" height="24.65" shape-rendering="crispEdges"/><rect fill="#161b22" x="0" y="757.9" width="12.2" height="24.65" shape-rendering="crispEdges"/><rect fill="#ffb547" x="12.2" y="757.9" width="61" height="24.65" shape-rendering="crispEdges"/><rect fill="#161b22" x="73.2" y="757.9" width="109.8" height="24.65" shape-rendering="crispEdges"/><rect fill="#161b22" x="183" y="757.9" width="36.6" height="24.65" shape-rendering="crispEdges"/><rect fill="#ffb547" x="219.6" y="757.9" width="85.4" height="24.65" shape-rendering="crispEdges"/><rect fill="#161b22" x="305" y="757.9" width="36.6" height="24.65" shape-rendering="crispEdges"/><rect fill="#161b22" x="341.6" y="757.9" width="36.6" height="24.65" shape-rendering="crispEdges"/><rect fill="#ffb547" x="378.2" y="757.9" width="36.6" height="24.65" shape-rendering="crispEdges"/><rect fill="#161b22" x="414.8" y="757.9" width="61" height="24.65" shape-rendering="crispEdges"/><rect fill="#161b22" x="475.8" y="757.9" width="36.6" height="24.65" shape-rendering="crispEdges"/><rect fill="#ffb547" x="512.4" y="757.9" width="36.6" height="24.65" shape-rendering="crispEdges"/><rect fill="#161b22" x="549" y="757.9" width="61" height="24.65" shape-rendering="crispEdges"/><rect fill="#161b22" x="610" y="757.9" width="988.2" height="24.65" shape-rendering="crispEdges"/><rect fill="#161b22" x="1598.2" y="757.9" width="12.2" height="24.65" shape-rendering="crispEdges"/>
    <g class="terminal-986414136-matrix">
    <text class="terminal-986414136-r2" x="12.2" y="20" textLength="85.4" clip-path="url(#terminal-986414136-line-0)">(o&#160;w&#160;o)</text><text class="terminal-986414136-r3" x="97.6" y="20" textLength="146.4" clip-path="url(#terminal-986414136-line-0)">&#160;&#160;DT-Cleaner</text><text class="terminal-986414136-r4" x="244" y="20" textLength="61" clip-path="url(#terminal-986414136-line-0)">&#160;&#160;·&#160;&#160;</text><text class="terminal-986414136-r5" x="305" y="20" textLength="48.8" clip-path="url(#terminal-986414136-line-0)">Home</text><text class="terminal-986414136-r1" x="1610.4" y="20" textLength="12.2" clip-path="url(#terminal-986414136-line-0)">
</text><text class="terminal-986414136-r6" x="24.4" y="44.4" textLength="231.8" clip-path="url(#terminal-986414136-line-1)">Ready&#160;when&#160;you&#160;are.</text><text class="terminal-986414136-r1" x="1610.4" y="44.4" textLength="12.2" clip-path="url(#terminal-986414136-line-1)">
</text><text class="terminal-986414136-r3" x="24.4" y="68.8" textLength="24.4" clip-path="url(#terminal-986414136-line-2)">▸&#160;</text><text class="terminal-986414136-r7" x="48.8" y="68.8" textLength="36.6" clip-path="url(#terminal-986414136-line-2)">&#160;1&#160;</text><text class="terminal-986414136-r8" x="109.8" y="68.8" textLength="122" clip-path="url(#terminal-986414136-line-2)">Quick&#160;Scan</text><text class="terminal-986414136-r9" x="402.6" y="68.8" textLength="573.4" clip-path="url(#terminal-986414136-line-2)">Scan&#160;your&#160;usual&#160;project&#160;folders.&#160;Fast,&#160;good&#160;for</text><text class="terminal-986414136-r10" x="1061.4" y="68.8" textLength="12.2" clip-path="url(#terminal-986414136-line-2)">╭</text><text class="terminal-986414136-r10" x="1073.6" y="68.8" textLength="512.4" clip-path="url(#terminal-986414136-line-2)">──────────────────────────────────────────</text><text class="terminal-986414136-r10" x="1586" y="68.8" textLength="12.2" clip-path="url(#terminal-986414136-line-2)">╮</text><text class="terminal-986414136-r1" x="1610.4" y="68.8" textLength="12.2" clip-path="url(#terminal-986414136-line-2)">
</text><text class="terminal-986414136-r7" x="48.8" y="93.2" textLength="36.6" clip-path="url(#terminal-986414136-line-3)">&#160;2&#160;</text><text class="terminal-986414136-r5" x="109.8" y="93.2" textLength="109.8" clip-path="url(#terminal-986414136-line-3)">Full&#160;Scan</text><text class="terminal-986414136-r4" x="402.6" y="93.2" textLength="524.6" clip-path="url(#terminal-986414136-line-3)">Scan&#160;entire&#160;drives.&#160;Thorough,&#160;takes&#160;longer.</text><text class="terminal-986414136-r10" x="1061.4" y="93.2" textLength="12.2" clip-path="url(#terminal-986414136-line-3)">│</text><text class="terminal-986414136-r3" x="1085.8" y="93.2" textLength="170.8" clip-path="url(#terminal-986414136-line-3)">History&#160;&amp;&#160;Logs</text><text class="terminal-986414136-r10" x="1586" y="93.2" textLength="12.2" clip-path="url(#terminal-986414136-line-3)">│</text><text class="terminal-986414136-r1" x="1610.4" y="93.2" textLength="12.2" clip-path="url(#terminal-986414136-line-3)">
</text><text class="terminal-986414136-r7" x="48.8" y="117.6" textLength="36.6" clip-path="url(#terminal-986414136-line-4)">&#160;3&#160;</text><text class="terminal-986414136-r5" x="109.8" y="117.6" textLength="134.2" clip-path="url(#terminal-986414136-line-4)">Custom&#160;Scan</text><text class="terminal-986414136-r4" x="402.6" y="117.6" textLength="378.2" clip-path="url(#terminal-986414136-line-4)">Pick&#160;the&#160;exact&#160;folders&#160;to&#160;scan.</text><text class="terminal-986414136-r10" x="1061.4" y="117.6" textLength="12.2" clip-path="url(#terminal-986414136-line-4)">│</text><text class="terminal-986414136-r6" x="1085.8" y="117.6" textLength="353.8" clip-path="url(#terminal-986414136-line-4)">Total&#160;reclaimed&#160;across&#160;all&#160;s…</text><text class="terminal-986414136-r5" x="1451.8" y="117.6" textLength="122" clip-path="url(#terminal-986414136-line-4)">&#160;&#160;&#160;81.3&#160;GB</text><text class="terminal-986414136-r10" x="1586" y="117.6" textLength="12.2" clip-path="url(#terminal-986414136-line-4)">│</text><text class="terminal-986414136-r1" x="1610.4" y="117.6" textLength="12.2" clip-path="url(#terminal-986414136-line-4)">
</text><text class="terminal-986414136-r7" x="48.8" y="142" textLength="36.6" clip-path="url(#terminal-986414136-line-5)">&#160;4&#160;</text><text class="terminal-986414136-r5" x="109.8" y="142" textLength="183" clip-path="url(#terminal-986414136-line-5)">Protected&#160;Paths</text><text class="terminal-986414136-r4" x="402.6" y="142" textLength="524.6" clip-path="url(#terminal-986414136-line-5)">Manage&#160;folders&#160;DT-Cleaner&#160;must&#160;never&#160;touch.</text><text class="terminal-986414136-r10" x="1061.4" y="142" textLength="12.2" clip-path="url(#terminal-986414136-line-5)">│</text><text class="terminal-986414136-r6" x="1085.8" y="142" textLength="353.8" clip-path="url(#terminal-986414136-line-5)">Recent&#160;cleanups&#160;&#160;&#160;&#160;&#160;&#160;&#160;&#160;&#160;&#160;&#160;&#160;&#160;&#160;</text><text class="terminal-986414136-r5" x="1451.8" y="142" textLength="122" clip-path="url(#terminal-986414136-line-5)">2026-08-1…</text><text class="terminal-986414136-r10" x="1586" y="142" textLength="12.2" clip-path="url(#terminal-986414136-line-5)">│</text><text class="terminal-986414136-r1" x="1610.4" y="142" textLength="12.2" clip-path="url(#terminal-986414136-line-5)">
</text><text class="terminal-986414136-r7" x="48.8" y="166.4" textLength="36.6" clip-path="url(#terminal-986414136-line-6)">&#160;5&#160;</text><text class="terminal-986414136-r5" x="109.8" y="166.4" textLength="97.6" clip-path="url(#terminal-986414136-line-6)">Settings</text><text class="terminal-986414136-r4" x="402.6" y="166.4" textLength="549" clip-path="url(#terminal-986414136-line-6)">Language,&#160;theme,&#160;safety&#160;and&#160;cleanup&#160;behavior.</text><text class="terminal-986414136-r10" x="1061.4" y="166.4" textLength="12.2" clip-path="url(#terminal-986414136-line-6)">╰</text><text class="terminal-986414136-r10" x="1073.6" y="166.4" textLength="512.4" clip-path="url(#terminal-986414136-line-6)">──────────────────────────────────────────</text><text class="terminal-986414136-r10" x="1586" y="166.4" textLength="12.2" clip-path="url(#terminal-986414136-line-6)">╯</text><text class="terminal-986414136-r1" x="1610.4" y="166.4" textLength="12.2" clip-path="url(#terminal-986414136-line-6)">
</text><text class="terminal-986414136-r7" x="48.8" y="190.8" textLength="36.6" clip-path="url(#terminal-986414136-line-7)">&#160;6&#160;</text><text class="terminal-986414136-r5" x="109.8" y="190.8" textLength="170.8" clip-path="url(#terminal-986414136-line-7)">History&#160;&amp;&#160;Logs</text><text class="terminal-986414136-r4" x="402.6" y="190.8" textLength="427" clip-path="url(#terminal-986414136-line-7)">Review&#160;previous&#160;scans&#160;and&#160;cleanups.</text><text class="terminal-986414136-r1" x="1610.4" y="190.8" textLength="12.2" clip-path="url(#terminal-986414136-line-7)">
</text><text class="terminal-986414136-r7" x="48.8" y="215.2" textLength="36.6" clip-path="url(#terminal-986414136-line-8)">&#160;7&#160;</text><text class="terminal-986414136-r5" x="109.8" y="215.2" textLength="48.8" clip-path="url(#terminal-986414136-line-8)">Help</text><text class="terminal-986414136-r4" x="402.6" y="215.2" textLength="561.2" clip-path="url(#terminal-986414136-line-8)">How&#160;DT-Cleaner&#160;decides&#160;what&#160;is&#160;safe&#160;to&#160;delete.</text><text class="terminal-986414136-r1" x="1610.4" y="215.2" textLength="12.2" clip-path="url(#terminal-986414136-line-8)">
</text><text class="terminal-986414136-r1" x="1610.4" y="239.6" textLength="12.2" clip-path="url(#terminal-986414136-line-9)">
</text><text class="terminal-986414136-r1" x="1610.4" y="264" textLength="12.2" clip-path="url(#terminal-986414136-line-10)">
</text><text class="terminal-986414136-r1" x="1610.4" y="288.4" textLength="12.2" clip-path="url(#terminal-986414136-line-11)">
</text><text class="terminal-986414136-r1" x="1610.4" y="312.8" textLength="12.2" clip-path="url(#terminal-986414136-line-12)">
</text><text class="terminal-986414136-r1" x="1610.4" y="337.2" textLength="12.2" clip-path="url(#terminal-986414136-line-13)">
</text><text class="terminal-986414136-r1" x="1610.4" y="361.6" textLength="12.2" clip-path="url(#terminal-986414136-line-14)">
</text><text class="terminal-986414136-r1" x="1610.4" y="386" textLength="12.2" clip-path="url(#terminal-986414136-line-15)">
</text><text class="terminal-986414136-r1" x="1610.4" y="410.4" textLength="12.2" clip-path="url(#terminal-986414136-line-16)">
</text><text class="terminal-986414136-r1" x="1610.4" y="434.8" textLength="12.2" clip-path="url(#terminal-986414136-line-17)">
</text><text class="terminal-986414136-r1" x="1610.4" y="459.2" textLength="12.2" clip-path="url(#terminal-986414136-line-18)">
</text><text class="terminal-986414136-r1" x="1610.4" y="483.6" textLength="12.2" clip-path="url(#terminal-986414136-line-19)">
</text><text class="terminal-986414136-r1" x="1610.4" y="508" textLength="12.2" clip-path="url(#terminal-986414136-line-20)">
</text><text class="terminal-986414136-r1" x="1610.4" y="532.4" textLength="12.2" clip-path="url(#terminal-986414136-line-21)">
</text><text class="terminal-986414136-r1" x="1610.4" y="556.8" textLength="12.2" clip-path="url(#terminal-986414136-line-22)">
</text><text class="terminal-986414136-r1" x="1610.4" y="581.2" textLength="12.2" clip-path="url(#terminal-986414136-line-23)">
</text><text class="terminal-986414136-r1" x="1610.4" y="605.6" textLength="12.2" clip-path="url(#terminal-986414136-line-24)">
</text><text class="terminal-986414136-r1" x="1610.4" y="630" textLength="12.2" clip-path="url(#terminal-986414136-line-25)">
</text><text class="terminal-986414136-r1" x="1610.4" y="654.4" textLength="12.2" clip-path="url(#terminal-986414136-line-26)">
</text><text class="terminal-986414136-r1" x="1610.4" y="678.8" textLength="12.2" clip-path="url(#terminal-986414136-line-27)">
</text><text class="terminal-986414136-r1" x="1610.4" y="703.2" textLength="12.2" clip-path="url(#terminal-986414136-line-28)">
</text><text class="terminal-986414136-r1" x="1610.4" y="727.6" textLength="12.2" clip-path="url(#terminal-986414136-line-29)">
</text><text class="terminal-986414136-r1" x="1610.4" y="752" textLength="12.2" clip-path="url(#terminal-986414136-line-30)">
</text><text class="terminal-986414136-r7" x="12.2" y="776.4" textLength="61" clip-path="url(#terminal-986414136-line-31)">&#160;1-7&#160;</text><text class="terminal-986414136-r6" x="73.2" y="776.4" textLength="109.8" clip-path="url(#terminal-986414136-line-31)">&#160;Navigate</text><text class="terminal-986414136-r7" x="219.6" y="776.4" textLength="85.4" clip-path="url(#terminal-986414136-line-31)">&#160;ENTER&#160;</text><text class="terminal-986414136-r6" x="305" y="776.4" textLength="36.6" clip-path="url(#terminal-986414136-line-31)">&#160;OK</text><text class="terminal-986414136-r7" x="378.2" y="776.4" textLength="36.6" clip-path="url(#terminal-986414136-line-31)">&#160;?&#160;</text><text class="terminal-986414136-r6" x="414.8" y="776.4" textLength="61" clip-path="url(#terminal-986414136-line-31)">&#160;Help</text><text class="terminal-986414136-r7" x="512.4" y="776.4" textLength="36.6" clip-path="url(#terminal-986414136-line-31)">&#160;Q&#160;</text><text class="terminal-986414136-r6" x="549" y="776.4" textLength="61" clip-path="url(#terminal-986414136-line-31)">&#160;Quit</text>
    </g>
    </g>
</svg>
